<svg width="167" height="33" viewBox="0 0 167 33" fill="none" xmlns="http://www.w3.org/2000/svg">
<path d="M6.528 25V5H0.352V1.16H16.992V5H10.912V25H6.528ZM22.6695 25.384C21.4535 25.384 20.3975 25.1813 19.5015 24.776C18.6055 24.3707 17.9122 23.7947 17.4215 23.048C16.9308 22.28 16.6855 21.3947 16.6855 20.392C16.6855 19.432 16.8988 18.5787 17.3255 17.832C17.7522 17.064 18.4135 16.424 19.3095 15.912C20.2055 15.4 21.3362 15.0373 22.7015 14.824L28.3975 13.896V17.096L23.5015 17.928C22.6695 18.0773 22.0508 18.344 21.6455 18.728C21.2402 19.112 21.0375 19.6133 21.0375 20.232C21.0375 20.8293 21.2615 21.3093 21.7095 21.672C22.1788 22.0133 22.7548 22.184 23.4375 22.184C24.3122 22.184 25.0802 22.0027 25.7415 21.64C26.4242 21.256 26.9468 20.7333 27.3095 20.072C27.6935 19.4107 27.8855 18.6853 27.8855 17.896V13.416C27.8855 12.6693 27.5868 12.0507 26.9895 11.56C26.4135 11.048 25.6455 10.792 24.6855 10.792C23.7895 10.792 22.9895 11.0373 22.2855 11.528C21.6028 11.9973 21.1015 12.6267 20.7815 13.416L17.3575 11.752C17.6988 10.8347 18.2322 10.0453 18.9575 9.384C19.7042 8.70133 20.5788 8.168 21.5815 7.784C22.5842 7.4 23.6722 7.208 24.8455 7.208C26.2748 7.208 27.5335 7.47467 28.6215 8.008C29.7095 8.52 30.5522 9.24533 31.1495 10.184C31.7682 11.1013 32.0775 12.1787 32.0775 13.416V25H28.1095V22.024L29.0055 21.96C28.5575 22.7067 28.0242 23.336 27.4055 23.848C26.7868 24.3387 26.0828 24.7227 25.2935 25C24.5042 25.256 23.6295 25.384 22.6695 25.384ZM35.952 25V7.592H39.888V11.464L39.568 10.888C39.9733 9.58667 40.6027 8.68 41.456 8.168C42.3307 7.656 43.376 7.4 44.592 7.4H45.616V11.112H44.112C42.9173 11.112 41.9573 11.4853 41.232 12.232C40.5067 12.9573 40.144 13.9813 40.144 15.304V25H35.952ZM56.3688 32.04C55.0674 32.04 53.8621 31.8267 52.7528 31.4C51.6434 30.9733 50.6834 30.376 49.8728 29.608C49.0834 28.8613 48.5074 27.976 48.1448 26.952L52.0488 25.48C52.3048 26.2907 52.8061 26.9413 53.5528 27.432C54.3208 27.944 55.2594 28.2 56.3688 28.2C57.2221 28.2 57.9688 28.04 58.6088 27.72C59.2701 27.4 59.7821 26.9307 60.1448 26.312C60.5074 25.7147 60.6888 24.9893 60.6888 24.136V20.168L61.4888 21.128C60.8914 22.1733 60.0914 22.9627 59.0888 23.496C58.0861 24.0293 56.9448 24.296 55.6648 24.296C54.0434 24.296 52.5928 23.9227 51.3128 23.176C50.0328 22.4293 49.0301 21.4053 48.3048 20.104C47.5794 18.8027 47.2168 17.3413 47.2168 15.72C47.2168 14.0773 47.5794 12.616 48.3048 11.336C49.0301 10.056 50.0221 9.05333 51.2808 8.328C52.5394 7.58133 53.9688 7.208 55.5688 7.208C56.8701 7.208 58.0114 7.48533 58.9928 8.04C59.9954 8.57333 60.8274 9.352 61.4888 10.376L60.9128 11.432V7.592H64.8808V24.136C64.8808 25.6507 64.5074 27.0053 63.7608 28.2C63.0354 29.3947 62.0328 30.3333 60.7528 31.016C59.4941 31.6987 58.0328 32.04 56.3688 32.04ZM56.1768 20.424C57.0728 20.424 57.8514 20.232 58.5128 19.848C59.1954 19.4427 59.7288 18.888 60.1128 18.184C60.4968 17.48 60.6888 16.6693 60.6888 15.752C60.6888 14.856 60.4861 14.056 60.0808 13.352C59.6968 12.6267 59.1634 12.0613 58.4808 11.656C57.8194 11.2507 57.0514 11.048 56.1768 11.048C55.3021 11.048 54.5128 11.2507 53.8088 11.656C53.1048 12.0613 52.5501 12.6267 52.1448 13.352C51.7608 14.056 51.5688 14.856 51.5688 15.752C51.5688 16.648 51.7608 17.448 52.1448 18.152C52.5501 18.856 53.0941 19.4107 53.7768 19.816C54.4808 20.2213 55.2808 20.424 56.1768 20.424ZM77.0518 25.384C75.2598 25.384 73.6918 24.9787 72.3478 24.168C71.0038 23.3573 69.9584 22.2587 69.2118 20.872C68.4651 19.4853 68.0918 17.9493 68.0918 16.264C68.0918 14.5147 68.4651 12.968 69.2118 11.624C69.9798 10.2587 71.0144 9.18133 72.3158 8.392C73.6384 7.60266 75.1104 7.208 76.7318 7.208C78.0971 7.208 79.2918 7.432 80.3158 7.88C81.3611 8.328 82.2464 8.94667 82.9718 9.736C83.6971 10.5253 84.2518 11.432 84.6358 12.456C85.0198 13.4587 85.2118 14.5467 85.2118 15.72C85.2118 16.0187 85.1904 16.328 85.1478 16.648C85.1264 16.968 85.0731 17.2453 84.9878 17.48H71.5477V14.28H82.6198L80.6358 15.784C80.8278 14.8027 80.7744 13.928 80.4758 13.16C80.1984 12.392 79.7291 11.784 79.0678 11.336C78.4278 10.888 77.6491 10.664 76.7318 10.664C75.8571 10.664 75.0784 10.888 74.3958 11.336C73.7131 11.7627 73.1904 12.4027 72.8278 13.256C72.4864 14.088 72.3584 15.1013 72.4438 16.296C72.3584 17.3627 72.4971 18.312 72.8598 19.144C73.2438 19.9547 73.7984 20.584 74.5238 21.032C75.2704 21.48 76.1238 21.704 77.0838 21.704C78.0438 21.704 78.8544 21.5013 79.5158 21.096C80.1984 20.6907 80.7318 20.1467 81.1158 19.464L84.5078 21.128C84.1664 21.96 83.6331 22.696 82.9078 23.336C82.1824 23.976 81.3184 24.4773 80.3158 24.84C79.3344 25.2027 78.2464 25.384 77.0518 25.384ZM96.3255 25.192C94.3628 25.192 92.8375 24.6587 91.7495 23.592C90.6828 22.504 90.1495 20.9787 90.1495 19.016V11.336H87.1415V7.592H87.4615C88.3148 7.592 88.9762 7.368 89.4455 6.92C89.9148 6.472 90.1495 5.82133 90.1495 4.968V3.624H94.3415V7.592H98.3415V11.336H94.3415V18.792C94.3415 19.368 94.4375 19.8587 94.6295 20.264C94.8428 20.6693 95.1628 20.9787 95.5895 21.192C96.0375 21.4053 96.6028 21.512 97.2855 21.512C97.4348 21.512 97.6055 21.5013 97.7975 21.48C98.0108 21.4587 98.2135 21.4373 98.4055 21.416V25C98.1068 25.0427 97.7655 25.0853 97.3815 25.128C96.9975 25.1707 96.6455 25.192 96.3255 25.192Z" fill="#009688"/>
<path d="M105.992 25L100.008 7.592H104.424L108.808 20.808L107.272 20.776L111.944 7.592H115.656L120.296 20.776L118.76 20.808L123.144 7.592H127.56L121.576 25H117.832L113.096 11.208H114.504L109.704 25H105.992ZM129.858 25V0.775999H134.05V11.016L133.474 10.408C133.88 9.36267 134.541 8.57333 135.458 8.04C136.397 7.48533 137.485 7.208 138.722 7.208C140.002 7.208 141.133 7.48533 142.114 8.04C143.117 8.59467 143.896 9.37333 144.45 10.376C145.005 11.3573 145.282 12.4987 145.282 13.8V25H141.09V14.792C141.09 14.024 140.941 13.3627 140.642 12.808C140.344 12.2533 139.928 11.8267 139.394 11.528C138.882 11.208 138.274 11.048 137.57 11.048C136.888 11.048 136.28 11.208 135.746 11.528C135.213 11.8267 134.797 12.2533 134.498 12.808C134.2 13.3627 134.05 14.024 134.05 14.792V25H129.858ZM157.339 25.384C155.632 25.384 154.075 24.9893 152.667 24.2C151.28 23.4107 150.171 22.3333 149.339 20.968C148.528 19.6027 148.123 18.0453 148.123 16.296C148.123 14.5467 148.528 12.9893 149.339 11.624C150.171 10.2587 151.28 9.18133 152.667 8.392C154.054 7.60266 155.611 7.208 157.339 7.208C159.046 7.208 160.592 7.60266 161.979 8.392C163.366 9.18133 164.464 10.2587 165.275 11.624C166.107 12.968 166.523 14.5253 166.523 16.296C166.523 18.0453 166.107 19.6027 165.275 20.968C164.443 22.3333 163.334 23.4107 161.947 24.2C160.56 24.9893 159.024 25.384 157.339 25.384ZM157.339 21.544C158.278 21.544 159.099 21.32 159.803 20.872C160.528 20.424 161.094 19.8053 161.499 19.016C161.926 18.2053 162.139 17.2987 162.139 16.296C162.139 15.272 161.926 14.376 161.499 13.608C161.094 12.8187 160.528 12.2 159.803 11.752C159.099 11.2827 158.278 11.048 157.339 11.048C156.379 11.048 155.536 11.2827 154.811 11.752C154.086 12.2 153.51 12.8187 153.083 13.608C152.678 14.376 152.475 15.272 152.475 16.296C152.475 17.2987 152.678 18.2053 153.083 19.016C153.51 19.8053 154.086 20.424 154.811 20.872C155.536 21.32 156.379 21.544 157.339 21.544Z" fill="#323B49"/>
</svg>
