<svg xmlns="http://www.w3.org/2000/svg" xmlns:i="http://ns.adobe.com/AdobeIllustrator/10.0/" id="Layer_1" data-name="Layer 1" viewBox="0 0 600 600">
  <defs>
    <style>      .cls-1 {        fill: #009688;      }      .cls-1, .cls-2 {        stroke-width: 0px;      }      .cls-2 {        fill: #E9EAEC;      }    </style>
  </defs>
  <path class="cls-1" d="M462.2,216.7c0,15.4,0,30.7,0,46.1,0,1.8,1,4.2-1,5.2-1.7.8-3-1.4-4.3-2.3-40.5-31.4-81-62.8-121.5-94.2-4.6-3.6-9.4-7-13.8-10.8-2.8-2.5-4.9-2.5-7.8-.2-14.7,11.5-29.5,22.8-44.2,34.2-26,20.1-51.9,40.3-77.8,60.5-23.7,18.4-47.5,36.8-71.2,55.2-26.4,20.5-52.8,41.1-79.2,61.7-1.2.9-2.5,2.7-4,2.1-1.8-.7-1-2.8-1-4.3,0-31.5,0-63,0-94.5,0-3.3.9-5.5,3.6-7.6,33.6-25.8,67-51.8,100.5-77.7,13.4-10.4,26.6-20.9,40.1-31.1,2.8-2.2,3.3-4.7,3.3-7.8,0-45,0-89.9,0-134.9,0-11,0-10.9,11.1-10.9,22,0,44,0,66,0,6,0,6.1,0,6.1,6,0,24.5,0,49.1,0,73.6,0,1.6-.9,3.9,1,4.7,1.8.8,3.1-1.1,4.5-2.1,13.5-10.5,27-20.9,40.2-31.7,3.5-2.8,5.8-3,9.4-.2,45.4,35.6,91,71,136.5,106.4,2.6,2.1,3.8,4.2,3.7,7.6-.2,15.7,0,31.3,0,47h0Z"/>
  <path class="cls-2" d="M266.9,246.2c0,2.6,0,4.4,0,6.1,0,72.3.3,144.7-.2,217-.2,22.1,18.5,43.9,44.5,43.4,41.9-.8,83.9-.7,125.8,0,24.3.4,44.8-20.1,44-44.1-.6-18,0-36.1-.2-54.1,0-3.1.8-4,3.9-4,25,.1,50,.1,75,0,2.9,0,4.1.5,4.1,3.8-.3,21,.8,42.2-.6,63.1-3,45.5-25.4,79.5-64.7,102.2-18.4,10.6-38.4,15.7-59.7,15.7-44.3,0-88.6,0-133-.2-57.1-.3-109.5-45.1-119.7-101.4-2.6-14.3-2.2-28.7-2.2-43,0-45.3,0-90.5,0-135.8,0-3.2,1.1-5.1,3.6-7,25.1-19.4,50.2-39,75.2-58.6,1.1-.9,2.3-1.6,4.2-3Z"/>
</svg>